<svg width="90" height="28" viewBox="0 0 90 28" fill="none" xmlns="http://www.w3.org/2000/svg">
<path d="M19.4652 8.7795C20.2098 7.60327 21.7846 6.42715 23.7599 6.42715C27.2247 6.42715 30.0022 9.55354 30.0022 13.7705C30.0022 17.9875 27.2247 21.1139 23.7599 21.1139C21.7845 21.1139 20.2098 19.9377 19.4652 18.7048V27.3099H15.8V6.65663H19.4652V8.7795ZM26.3372 13.7705C26.3372 11.6477 24.7912 9.86931 22.9012 9.86931C21.0113 9.86931 19.4653 11.6476 19.4653 13.7705C19.4653 15.8935 21.0113 17.6718 22.9012 17.6718C24.7912 17.6718 26.3372 15.8934 26.3372 13.7705Z" fill="#18202D"></path>
<path d="M52.5626 6.65662L47.7521 20.8844H44.3161L41.3382 11.3038L38.3604 20.8844H34.9245L30.114 6.65662H34.0082L36.757 15.5488L39.5633 6.65662H43.1134L45.9197 15.5488L48.6685 6.65662H52.5626Z" fill="#18202D"></path>
<path d="M53.9697 0.690094H57.6349V4.13225H53.9697V0.690094ZM53.9697 6.65662H57.6349V20.8844H53.9697V6.65662Z" fill="#18202D"></path>
<path d="M73.621 12.6232V20.8845H69.9558V12.8526C69.9558 10.5579 68.6101 9.86943 67.2646 9.86943C65.6036 9.86943 64.0001 10.9592 64.0001 13.3116V20.8845H60.335V6.65663H64.0001V8.7795C64.4582 7.91824 65.8901 6.42715 68.1233 6.42715C71.2441 6.42715 73.621 8.32054 73.621 12.6232Z" fill="#18202D"></path>
<path d="M89.5984 0.690094V20.8844H85.9333V18.7048C85.1886 19.9377 83.6138 21.1139 81.6385 21.1139C78.1738 21.1139 75.3962 17.9875 75.3962 13.7705C75.3962 9.55352 78.1738 6.42714 81.6385 6.42714C83.614 6.42714 85.1886 7.60337 85.9333 8.77948V0.690094H89.5984ZM85.9333 13.7705C85.9333 11.6477 84.3873 9.8693 82.4972 9.8693C80.6072 9.8693 79.0613 11.6475 79.0613 13.7705C79.0613 15.8935 80.6072 17.6718 82.4972 17.6718C84.3873 17.6716 85.9333 15.8934 85.9333 13.7705Z" fill="#18202D"></path>
<path d="M13.2859 0.690094H0V4.13225H13.2859V0.690094Z" fill="#18202D"></path>
<path d="M6.64295 21.1139C2.98001 21.1139 0 18.1285 0 14.459V6.65662H3.66513V14.6884C3.66513 16.3334 5.00093 17.6718 6.64307 17.6718C8.28509 17.6718 9.62089 16.3335 9.62089 14.6884V6.65662H13.286V14.459C13.2859 18.1285 10.3059 21.1139 6.64295 21.1139Z" fill="#18202D"></path>
</svg>